<svg xmlns="http://www.w3.org/2000/svg" viewBox="0 0 1000 1000" xmlns:v="https://vecta.io/nano"><ellipse cx="480.48" cy="833.36" rx="283.04" ry="43.67" fill="#ffc1eb"/><rect x="346.92" y="720.28" width="11.55" height="92.2" rx="4.02" transform="matrix(.420402 -.907338 .907338 .420402 -490.95 764.22)"/><path d="M313.21,719.14l38,10,51.33,23.79-8.76,18.92a7.2,7.2,0,0,1-9.55,3.5l-67.57-31.3Z" fill="#fff"/><path d="M387.24 778a9.12 9.12 0 0 1-3.85-.85l-68.56-31.75-4-29 41.24 10.89L405.2 752l-9.61 20.74a9.2 9.2 0 0 1-8.35 5.26zm-68.74-35.31l66.57 30.85A5.19 5.19 0 0 0 392 771l7.93-17.11-49.4-22.89-34.93-9.19z"/><path d="M322 758.52l-43.22-20a6.61 6.61 0 0 1-3.22-8.77h0a27.12 27.12 0 0 1 36-13.2h0a27.11 27.11 0 0 1 13.2 36zm340.17-421.63L640 338.24a38.27 38.27 0 0 1-40.52-35.87l-1.25-20.61a34 34 0 0 1 31.9-36l17.28-1.05a47.26 47.26 0 0 1 50 44.3l.46 7.6a38.06 38.06 0 0 1-35.7 40.28zM283.63 836a2 2 0 0 1-2-1.66L228 526.33l-81.8 307.85a2 2 0 0 1-3.87-1l86.47-325.49 56.8 326a2 2 0 0 1-1.97 2.31z"/><rect x="181.38" y="489.17" width="422.55" height="27.84" rx="8.79"/><rect x="476.5" y="199.14" width="109.62" height="37.78" rx="18.89" fill="#fff"/><path d="M567.24,238.91H495.39a20.89,20.89,0,1,1,0-41.77h71.85a20.89,20.89,0,1,1,0,41.77Zm-71.85-37.77a16.89,16.89,0,1,0,0,33.77h71.85a16.89,16.89,0,1,0,0-33.77Z"/><path d="M507.69 227.13l-5.12-2.7a.53.53 0 0 0-.49 0l-5.12 2.7a.53.53 0 0 1-.76-.56l1-5.7a.55.55 0 0 0-.16-.47l-4.14-4a.52.52 0 0 1 .29-.89l5.73-.84a.5.5 0 0 0 .39-.28l2.57-5.19a.52.52 0 0 1 .94 0l2.56 5.19a.52.52 0 0 0 .4.28l5.72.84a.52.52 0 0 1 .29.89l-4.14 4a.54.54 0 0 0-.15.47l1 5.7a.53.53 0 0 1-.81.56zm28.99 0l-5.12-2.7a.53.53 0 0 0-.49 0l-5.12 2.7a.53.53 0 0 1-.77-.56l1-5.7a.52.52 0 0 0-.15-.47l-4.14-4a.52.52 0 0 1 .29-.89l5.73-.84a.5.5 0 0 0 .39-.28l2.56-5.19a.53.53 0 0 1 .95 0l2.56 5.19a.5.5 0 0 0 .39.28l5.73.84a.52.52 0 0 1 .29.89l-4.14 4a.52.52 0 0 0-.15.47l1 5.7a.53.53 0 0 1-.81.56zm28.99 0l-5.12-2.7a.53.53 0 0 0-.49 0l-5.12 2.7a.53.53 0 0 1-.77-.56l1-5.7a.54.54 0 0 0-.15-.47l-4.14-4a.52.52 0 0 1 .29-.89l5.72-.84a.53.53 0 0 0 .4-.28l2.56-5.19a.52.52 0 0 1 .94 0l2.56 5.19a.53.53 0 0 0 .4.28l5.73.84a.52.52 0 0 1 .29.89l-4.15 4a.54.54 0 0 0-.15.47l1 5.7a.53.53 0 0 1-.8.56z" fill="#ffbb45"/><rect x="243.28" y="256.62" width="292.94" height="195.73" rx="19.22"/><rect x="262.67" y="273.51" width="254.16" height="165.89" rx="14.65" fill="#fff"/><g fill="#6dc8c2"><rect x="333.41" y="301.23" width="84.34" height="115.65" rx="10.26"/><rect x="283.75" y="298.09" width="31.11" height="31.11" rx="4.29"/></g><rect x="283.75" y="343.83" width="31.11" height="31.11" rx="5.12" fill="#ffc1eb"/><rect x="283.75" y="389.56" width="31.11" height="31.11" rx="5.18" fill="#ffbb45"/><path d="M501.07 305.49h-66.76a2 2 0 1 1 0-4h66.76a2 2 0 0 1 0 4zm0 18.51h-66.76a2 2 0 0 1 0-4h66.76a2 2 0 0 1 0 4zm-20.73 18.42h-46a2 2 0 0 1 0-4h46a2 2 0 0 1 0 4z"/><rect x="432.38" y="356.34" width="45.56" height="17.74" rx="8.87" fill="#ffc1eb"/><circle cx="496.46" cy="365.22" r="8.33" fill="#fb6d6d"/><path d="M392.39 489.17h-69.68l28.53-36.82h72.54l-31.39 36.82zM693.7 618.16a2.05 2.05 0 0 1-.49-.06 2 2 0 0 1-1.45-2.43l26.32-104a2.003 2.003 0 1 1 3.88 1l-26.32 104a2 2 0 0 1-1.94 1.49zM549.15 831.63a1.23 1.23 0 0 1-.27 0 2 2 0 0 1-1.72-2.25l26.93-198.81a2.017 2.017 0 1 1 4 .53l-26.96 198.8a2 2 0 0 1-1.98 1.73z"/><rect x="674.45" y="432.23" width="119.61" height="43.64" rx="13.99" transform="matrix(.221378 -.975188 .975188 .221378 128.88 1069.52)" fill="#c7b8f8"/><path d="M695.11 831.63a2 2 0 0 1-2-1.72L665 631.09a2 2 0 1 1 4-.56l28.1 198.82a2 2 0 0 1-1.7 2.26 1.32 1.32 0 0 1-.29.02z"/><path d="M685.8,765.73H558.07a2,2,0,0,1,0-4H685.8a2,2,0,0,1,0,4Z"/><rect x="549.15" y="583.89" width="148.7" height="46.92" rx="13.82" fill="#c7b8f8"/><circle cx="701.53" cy="250.55" r="29.65"/><circle cx="755.97" cy="223.78" r="39.8"/><path d="M682.16 306.67a13 13 0 0 0-13-13 13.68 13.68 0 0 0-1.82.14l-2.49-34.12-48.53 5.21a20.3 20.3 0 0 0-18.15 20.19v5.49a33.51 33.51 0 0 1-5.1 18l-.09.13v.05a4.69 4.69 0 0 0 1.84 6.8l3.38 1.66v12.86a17.7 17.7 0 0 0 20.44 17.49l12.46-1.94 2.5 21.37 39.67-4.68-2.69-22.81h.12l-1.45-19.85a13 13 0 0 0 12.91-12.99z" fill="#fff"/><path d="M631.85 369.22L629.34 348l-10.4 1.62a19.7 19.7 0 0 1-22.74-19.47v-11.63l-2.27-1.11a6.64 6.64 0 0 1-3.49-4.19 6.85 6.85 0 0 1 .85-5.5l.11-.17a31.4 31.4 0 0 0 4.8-16.95v-5.49a22.26 22.26 0 0 1 19.92-22.18l50.59-5.43 2.5 34.19a15 15 0 0 1 2.18 29.79l1.43 19.71h0l2.7 22.88zm1-25.84l2.52 21.4 35.7-4.21-2.68-22.73h.2l-1.47-20.15h2.14a11 11 0 0 0-.06-22 11.38 11.38 0 0 0-1.54.12l-2.12.3-2.54-34.19-46.48 5a18.27 18.27 0 0 0-16.35 18.2v5.49a35.39 35.39 0 0 1-5.43 19.1l-.1.16a2.84 2.84 0 0 0-.37 2.29 2.61 2.61 0 0 0 1.39 1.67l4.51 2.2v14.11a15.71 15.71 0 0 0 18.12 15.52zM611 332.17a8.92 8.92 0 0 1-1.52-.13 10.1 10.1 0 0 1-5.16-2.56 2.018 2.018 0 0 1 2.7-3 6.31 6.31 0 0 0 3.11 1.57c3.7.61 6.61-3 6.64-3a2 2 0 0 1 3.15 2.46c-.21.23-3.74 4.66-8.92 4.66z"/><circle cx="619.19" cy="301.91" r="3.15"/><path d="M667.84 313.42a5.38 5.38 0 1 1 5.38-5.38 5.38 5.38 0 0 1-5.38 5.38zm0-6.76a1.38 1.38 0 1 0 1.38 1.38 1.38 1.38 0 0 0-1.38-1.38z"/><path d="M635.64 361.6l60.86-2.76a34.56 34.56 0 0 1 24.86 8.65c8.77 8 15.63 22.69 6.08 49.39L714 441.93l-76-9.2-13.13 25.54-47.7 5.45c-1.18.13-4.83-6.15-5.34-6.94a47 47 0 0 1-7.24-19.19c-2.5-19.52 12-35.2 23.23-49.47 11.92-15.22 27.76-25.61 47.82-26.52z" fill="#ffc1eb"/><path d="M664.58 310.92a2 2 0 0 1-2-1.61 7.85 7.85 0 0 1 2.48-7.42 8.18 8.18 0 0 1 7.26-1.65 2.003 2.003 0 0 1-1.07 3.86 4.12 4.12 0 0 0-3.55.79 3.85 3.85 0 0 0-1.2 3.63 2 2 0 0 1-1.56 2.36 2.85 2.85 0 0 1-.36.04zm-48.24-46s-.65 40.29 51.41 28.85l-2.88-34.06z"/><path d="M619.92 319.41c-8.26 0-15-7.79-15-17.38s6.73-17.38 15-17.38 15 7.8 15 17.38-6.73 17.38-15 17.38zm0-30.76c-6.06 0-11 6-11 13.38s4.93 13.38 11 13.38 11-6 11-13.38-4.92-13.38-11-13.38zm68.52 241.24H612v-50.74h70.63a142.48 142.48 0 0 1 5.85 50.74z"/><path d="M495.73 489.17h-39.38a14.14 14.14 0 0 1-13.61-18.06h0a13.62 13.62 0 0 1 13.09-9.81h40.41a13.62 13.62 0 0 1 12.9 9.23h0a14.12 14.12 0 0 1-13.41 18.64z" fill="#f3ead6"/><path d="M636.82 432.73l-12.94 25.54-74.53 7.42a14.43 14.43 0 0 1-8.08-1.55L509 447.38s-11.27-6.31-27.56.49L454 460.32a6 6 0 0 0-3.6 6v.06a3.61 3.61 0 0 0 4.55 3l29.05-8.15-13.61 12.31a13 13 0 0 0-4 6.79c-.92 4.27.19 10.06 11.25 12.7 0 0 5.09 8.55 13.75 4 .05 0 1.28 1.09 1.38 1.16a27.34 27.34 0 0 0 4.32 2.73 37.45 37.45 0 0 0 15.3 3.89c3.3.16 6.4-1.28 6.83-4.86l2.78.29q13 1.33 25.89 3.82l65.73 12.71c18 2.55 30.88-1.3 37.45-3.9 19.2-7.59 31.64-21.09 41.62-38.24l19-32.71z" fill="#fff"/><path d="M625.37 519.63a85.77 85.77 0 0 1-12-.87h-.1L547.5 506c-8.48-1.64-17.13-2.91-25.71-3.8l-1.08-.11c-1.22 3.07-4.4 4.9-8.43 4.7a39.63 39.63 0 0 1-16.12-4.11 31 31 0 0 1-4.63-2.92l-.39-.34-.07-.06c-7 2.93-12.38-1.31-14.69-4.61-12.47-3.27-12.86-10.69-12-14.87a14.82 14.82 0 0 1 4.66-7.85l7.32-6.62-20.94 5.85a5.61 5.61 0 0 1-7.07-4.61 8 8 0 0 1 4.71-8.16l27.55-12.47c17.05-7.12 28.87-.69 29.37-.41l32.17 16.72a12.39 12.39 0 0 0 7 1.34l73.43-7.31 13.08-25.81 79.34 9.76-20.57 35.34c-11.48 19.71-25 32.13-42.61 39.09a71.54 71.54 0 0 1-26.45 4.89zm-11.43-4.83c13.1 1.85 25.35.58 36.39-3.78 16.94-6.7 29.47-18.23 40.62-37.38l17.52-30.1-70.47-8.65-12.8 25.26-75.62 7.53a16.4 16.4 0 0 1-9.2-1.77l-32.23-16.75c-.48-.26-10.76-5.76-25.87.56l-27.46 12.42a4 4 0 0 0-2.45 3.92 1.64 1.64 0 0 0 2.05 1.38L491.66 457l-19.89 18a10.87 10.87 0 0 0-3.44 5.72c-1.09 5.05 2.19 8.53 9.76 10.33l.82.2.43.73c.43.7 4.38 6.79 11.11 3.25 1.26-.66 2.09.08 3.35 1.2l.23.21a26.53 26.53 0 0 0 4 2.49 35.67 35.67 0 0 0 14.48 3.66c1.31.06 4.39-.1 4.74-3.1l.23-2 4.75.49a294.9 294.9 0 0 1 26.06 3.85zm-121.62-16h0z"/><rect x="435" y="818.66" width="92.2" height="11.55" rx="4.02"/><path d="M425.41,798.17l38.68-6.9h56.58v20.86a7.19,7.19,0,0,1-7.19,7.19H439Z" fill="#fff"/><path d="M513.48 821.32h-75.55l-15.83-24.59 42-7.46h58.58v22.86a9.2 9.2 0 0 1-9.2 9.19zm-73.37-4h73.37a5.2 5.2 0 0 0 5.19-5.19v-18.86h-54.4l-35.56 6.34zm-62.68-65.5l-23.25-17a33.78 33.78 0 0 1-7.39-47.2l101.3-138.92a49.54 49.54 0 0 1 69.23-10.84h0a49.54 49.54 0 0 1 10.84 69.23l-99.68 136.74a36.54 36.54 0 0 1-51.05 7.99z"/><path d="M619.14 601h-177v-34.78a50.46 50.46 0 0 1 50.46-50.45h195.84v15.93a69.3 69.3 0 0 1-69.3 69.3z"/><path d="M504.74 796.16H476a33.79 33.79 0 0 1-33.79-33.78V596.73h99.1v162.89a36.53 36.53 0 0 1-36.57 36.54z"/><path d="M389.31 752.52a2 2 0 0 1-1.63-3.15l52.86-75a2.002 2.002 0 0 1 3.27 2.31l-52.86 75a2 2 0 0 1-1.64.84zm120.59 45.27a2 2 0 0 1-2-2V592.61a28.4 28.4 0 0 1 28.37-28.38h77.78a30.85 30.85 0 0 0 30.82-30.82v-17.64a2 2 0 0 1 4 0v17.64a34.86 34.86 0 0 1-34.82 34.82h-77.78a24.4 24.4 0 0 0-24.37 24.38v203.18a2 2 0 0 1-2 2z" fill="#fff"/><path d="M477.62 495a2 2 0 0 1-1.91-1.44c-4.64-15.89 12.39-25.71 12.57-25.81a2.007 2.007 0 1 1 2 3.48h0a29.55 29.55 0 0 0-6.94 5.94c-4 4.82-5.31 9.95-3.75 15.27a2 2 0 0 1-1.36 2.48 2.24 2.24 0 0 1-.61.08zm13.76 4a2 2 0 0 1-1.65-.88 12.59 12.59 0 0 1-2.12-10.34c2-8.42 12.17-14.15 12.61-14.39a2 2 0 1 1 1.94 3.49c-.16.1-9.08 5.16-10.66 11.83a8.67 8.67 0 0 0 1.53 7.16 2 2 0 0 1-1.65 3.13zm27.83 3a2 2 0 0 1-2-1.76c-.39-3.2-6.9-7-10-8.31l-2.76-1.18 9.58-9.27a2 2 0 0 1 2.78 2.87l-5.37 5.2c3.51 1.88 9.17 5.6 9.73 10.21a2 2 0 0 1-1.74 2.22zm-69.3 328.22h-47.63a6.61 6.61 0 0 1-6.61-6.61h0a27.13 27.13 0 0 1 27.12-27.12h0a27.12 27.12 0 0 1 27.12 27.12zm183.01-529.05a2.003 2.003 0 0 1-.22-4l31.54-3.49a2.012 2.012 0 0 1 .44 4l-31.54 3.48zm-1.58 42.46l1.41 12 20.88-13.77a.76.76 0 0 0-.53-1.39zm5.48 91.1a2 2 0 0 1-1.8-2.79l8.2-18.88a2 2 0 1 1 3.67 1.59l-8.21 18.88a2 2 0 0 1-1.86 1.2z"/><g fill="#fff"><path d="M442.78 723.11a2 2 0 0 1-2-2V558.39a2 2 0 0 1 4 0v162.72a2 2 0 0 1-2 2z"/><rect x="745.36" y="298.73" width="226.13" height="155.32" rx="22.12"/></g><path d="M949.37 456.05H767.48a24.15 24.15 0 0 1-24.12-24.12V320.85a24.15 24.15 0 0 1 24.12-24.12h181.89a24.15 24.15 0 0 1 24.12 24.12v111.08a24.15 24.15 0 0 1-24.12 24.12zM767.48 300.73a20.14 20.14 0 0 0-20.12 20.12v111.08a20.14 20.14 0 0 0 20.12 20.12h181.89a20.15 20.15 0 0 0 20.12-20.12V320.85a20.14 20.14 0 0 0-20.12-20.12z"/><g fill="#ffc1eb"><circle cx="868.66" cy="348.77" r="6.75"/><circle cx="892.04" cy="348.77" r="6.75"/><circle cx="915.43" cy="348.77" r="6.75"/><circle cx="938.82" cy="348.77" r="6.75"/></g><g fill="#6dc8c2"><circle cx="803.42" cy="368.63" r="13.11"/><path d="M802.26 388.44a25.81 25.81 0 0 0-21.94 11.94 37.3 37.3 0 0 0 44.62 1.25 25.75 25.75 0 0 0-22.68-13.19z"/></g><path d="M945.57 376h-85a2 2 0 1 1 0-4h85a2 2 0 0 1 0 4zm0 15.7h-85a2 2 0 0 1 0-4h85a2 2 0 0 1 0 4zM914 407.42h-53.39a2 2 0 0 1 0-4H914a2 2 0 0 1 0 4zm-111.37 1.94a35.27 35.27 0 1 1 35.27-35.27 35.31 35.31 0 0 1-35.27 35.27zm0-66.53a31.27 31.27 0 1 0 31.27 31.26 31.3 31.3 0 0 0-31.27-31.26z"/><rect x="763.59" y="515.77" width="96.3" height="96.3" rx="15.16" fill="#fff"/><path d="M844.73 614.07h-66a17.18 17.18 0 0 1-17.17-17.16v-66a17.18 17.18 0 0 1 17.17-17.16h66a17.18 17.18 0 0 1 17.17 17.16v66a17.18 17.18 0 0 1-17.17 17.16zm-66-96.3a13.18 13.18 0 0 0-13.17 13.16v66a13.18 13.18 0 0 0 13.17 13.16h66a13.18 13.18 0 0 0 13.17-13.16v-66a13.18 13.18 0 0 0-13.17-13.16z"/><path d="M796.34 586.71v-22.63a2.23 2.23 0 0 1 1.15-2c3.16-1.77 11.85-7.66 12.86-19.59.37-4.31 2.26-6.34 4.25-6.83 2.3-.56 4.67 1.84 5 2.16 5.41 5.64-.24 18.57-.76 19.73l7.15-.19a10.65 10.65 0 0 1 10.92 10.39l.25 10.24a10.64 10.64 0 0 1-10.64 10.9h-27.94a2.24 2.24 0 0 1-2.24-2.18z" fill="#6dc8c2"/><rect x="787.45" y="559.19" width="11.6" height="31.72" rx="2.46" fill="#ffc1eb"/><g fill="#ffbb45"><circle cx="232.86" cy="236.32" r="23.99"/><ellipse cx="204.04" cy="290.03" rx="46.93" ry="34.08" transform="matrix(.465923 -.884825 .884825 .465923 -147.65 335.41)"/><ellipse cx="177.29" cy="381.67" rx="63.4" ry="51.53" transform="matrix(.14 -.99 .99 .14 -224.87 505.68)"/><circle cx="50.69" cy="314.94" r="22.18"/><ellipse cx="65.33" cy="365.84" rx="31.07" ry="40.41" transform="matrix(.973659 -.228011 .228011 .973659 -81.71 24.54)"/><ellipse cx="86.11" cy="448.97" rx="44.57" ry="54.85" transform="matrix(.985497 -.169694 .169694 .985497 -74.92 21.12)"/></g><path d="M124.22 601.86a2 2 0 0 1-2-1.75C110.41 506.42 77.87 425 77.54 424.23a2 2 0 1 1 3.71-1.49c.33.81 33.06 82.65 45 176.87a2 2 0 0 1-1.74 2.24zm24.16 1.03a2 2 0 0 1-2-2c-.25-94 13-169.37 24.15-216.09 12.1-50.67 24.47-79.53 24.57-79.8a2 2 0 0 1 3.67 1.59c-.12.28-12.36 28.9-24.38 79.28-11.09 46.48-24.26 121.53-24 215a2 2 0 0 1-2 2z"/><rect x="81.86" y="600.89" width="105.58" height="245.74" rx="27.57" fill="#6dc8c2"/><path d="M87 833.5a2 2 0 0 1-1.84-1.21 2 2 0 0 1 1-2.63 128.82 128.82 0 0 1 99.33-1.28 2 2 0 0 1-1.49 3.71 124.86 124.86 0 0 0-96.26 1.24 2 2 0 0 1-.74.17zm85.8-191.84H98a2 2 0 0 1 0-4h74.8a2 2 0 1 1 0 4z"/><path d="M153.61 823.05a2 2 0 0 1-2-2v-180.8a2 2 0 0 1 4 0v180.8a2 2 0 0 1-2 2zm-36.47 0a2 2 0 0 1-2-2v-180.8a2 2 0 0 1 4 0v180.8a2 2 0 0 1-2 2z"/></svg>